<?xml version="1.0" encoding="UTF-8" standalone="no"?><!DOCTYPE svg PUBLIC "-//W3C//DTD SVG 1.1//EN" "http://www.w3.org/Graphics/SVG/1.1/DTD/svg11.dtd"><svg width="100%" height="100%" viewBox="0 0 709 709" version="1.1" xmlns="http://www.w3.org/2000/svg" xmlns:xlink="http://www.w3.org/1999/xlink" xml:space="preserve" xmlns:serif="http://www.serif.com/" style="fill-rule:evenodd;clip-rule:evenodd;stroke-linejoin:round;stroke-miterlimit:2;"><rect x="0" y="0" width="708.48" height="708.48" style="fill:#fff;"/><path d="M109.009,353.998c0.161,0.111 0.425,-0.148 0.586,-0.038c0.439,0.302 0.483,10.843 3.078,18.537c17.024,50.469 62.323,51.304 73.753,90.726c0.956,3.297 15.877,-5.09 21.181,-16.757c14.37,-31.61 -12.416,-49.724 -29.392,-69.79c-9.752,-11.527 -12.819,-22.093 -9.359,-17.605c8.118,10.529 31.639,21.157 45.203,37.089c20.675,24.285 5.514,47.869 12.021,36.81c24.385,-41.448 1.522,-74.651 1.724,-77.022c0.131,-1.543 1.133,-0.421 6.789,5.822c34.629,38.226 3.58,94.317 -38.578,112.185c-67.272,28.512 -131.924,-26.121 -138.603,-81.36c-5.711,-47.23 10.082,-58.45 19.396,-92.757c3.754,-13.825 6.11,-38.4 6.06,-42.099c-0.087,-6.522 -0.828,-6.368 -0.815,-6.926c0.032,-1.404 1.419,-0.808 1.838,1.465c7.512,40.732 3,53.646 -2.991,73.33c-4.208,13.826 -20.874,44.174 -5.26,83.682c19.599,49.592 63.135,57.722 69.247,59.184c0.068,-0.034 0.848,-0.422 0.848,-0.422c-0.004,-0.116 -0.087,-0.059 -1.205,-0.819c-56.019,-26.809 -79.657,-89.274 -53.264,-125.579c3.487,-4.796 10.313,-10.226 8.99,-7.143c-0.37,0.861 -25.794,46.156 19.529,97.101c23.363,26.261 53.379,34.717 54.217,34.782c2.743,0.212 -6.492,-10.947 -10.432,-14.891c-18.185,-18.199 -62.262,-39.663 -56.036,-90.006c0.081,-0.656 0.827,-5.685 0.901,-6.179c0.322,-0.951 0.317,-0.946 0.348,-1.027c0.072,-0.188 0.151,-0.1 0.225,-0.293l0.001,0Z" style="fill:#bb0218;"/><path d="M190.929,449.18c-0.215,-37.329 -43.597,-51.158 -61.649,-76.084c-31.385,-43.336 16,-98.893 58.584,-88.485c20.121,4.918 20.678,18.526 26.408,21.278c1.605,0.771 11.684,4.034 16.209,16.961c0.302,0.863 2.465,8.909 -0.452,8.394c-1.365,-0.241 -9.51,-3.178 -19.417,0.375c-4.207,1.509 15.999,19.028 3.883,34.443c-8.557,10.886 -33.676,5.955 -31.688,-19.8c1.116,-14.448 21.421,-31.402 20.935,-33.876c-0.425,-2.165 -13.896,-30.336 -46.914,-12.246c-17.089,9.362 -43.718,44.638 -3.837,76.906c21.868,17.694 47.763,30.629 43.405,60.606c-0.697,4.796 -4.354,11.484 -4.531,11.542c-0.296,0.097 -0.638,-0.111 -0.934,-0.014l-0.002,0Zm20.44,-131.506c-5.985,0.495 -6.658,3.374 -4.851,3.106c9.116,-1.349 9.342,0.005 9.919,-0.542c0.33,-0.312 0.987,-1.973 -5.069,-2.565l0.001,0.001Zm-7.429,28.512c-0.844,-1.752 -3.644,-6.957 -4.098,-8.977c-0.929,-4.135 -3.8,2.725 -4.494,5.589c-3.64,15.03 7.838,21.052 10.652,13.926c1.175,-2.975 -1.723,-9.749 -2.061,-10.539l0.001,0.001Z" style="fill:#bb0218;"/><path d="M481.172,368.742c-3.214,-0.43 -3.218,-0.376 -6.112,-1.861c-10.795,-5.539 -9.053,-17.88 -9.054,-20.597c-0.021,-51.914 -0.472,-52.594 3.586,-57.304c5.867,-6.81 11.762,-6.323 15.758,-6.336c20.224,-0.062 22.5,-0.428 27.632,3.504c7.663,5.871 6.527,9.544 6.527,44.915c0,20.346 1.673,29.942 -8.741,35.65c-2.081,1.141 -5.498,3.013 -29.597,2.03l0.001,-0.001Zm17.135,-22.58c0.9,-2.086 0.677,-2.138 0.677,-13.024c0,-27.296 0.756,-29.419 -3.926,-29.949c-8.973,-1.015 -8.556,3.33 -8.557,6.425c-0.016,31.856 -0.148,31.85 0.055,34.611c0.314,4.278 7.616,6.186 11.751,1.937Z" style="fill:#bb0219;"/><path d="M599.129,452.813c-0.265,-10.667 -0.117,-53.179 -0.026,-54.616c0.828,-13.089 11.759,-16.057 17.011,-16.081c18.007,-0.081 29.833,-1.736 34.947,9.978c1.443,3.306 1.489,3.414 1.446,55.894c-0.017,20.259 -12.384,20.324 -23.248,20.324c-10.087,0 -28.2,2.727 -30.131,-15.499l0.001,0Zm27.364,-50.118c-0.928,0.019 -1.857,-0.007 -2.785,0.012c-4.885,0.1 -4.095,2.57 -4.095,30.06c0,10.953 -1.883,15.859 8.241,14.941c4.964,-0.45 4.07,-3.759 4.07,-22.551c0,-19.278 1.085,-22.128 -5.432,-22.461l0.001,-0.001Z" style="fill:#bb0218;"/><path d="M307.515,421.668c-2.042,0.13 -2.156,-0.097 -2.406,0.336c-0.684,1.182 3.205,0.755 3.489,0.724c1.241,0.503 10.257,4.154 10.791,12.8c1.248,20.207 -1.919,24.377 -3.188,26.05c-5.746,7.567 -7.927,6.809 -46.718,6.735c-2.62,-0.005 -2.027,-1.073 -2.027,-3.719c-0.01,-81.729 -0.025,-82.02 0.66,-82.305c2.197,-0.912 2.307,-0.289 29.737,-0.173c2.024,0.009 19.215,0.081 19.555,16.053c0.32,15.014 0.335,20.651 -9.892,23.499l-0.001,-0Zm-16.582,-23.18c-0.667,0.1 -1.357,-0.078 -2.025,0.023c-1.26,0.19 -1.01,1.69 -1.004,17.652c0,0.334 0.002,3.965 0.237,4.174c2.371,2.098 14.613,-10.164 8.858,-19.304c-1.906,-3.026 -5.074,-2.485 -6.066,-2.544l-0,-0.001Zm-3.028,45.349c0.007,3.467 -0.762,8.193 1.648,8.214c4.632,0.042 6.521,0.207 8.436,-6.794c3.402,-12.439 -9.951,-24.984 -10.097,-20.156c-0.045,1.498 0.013,1.488 0.013,18.736Z" style="fill:#bb0218;"/><path d="M400.25,368.831c-14.527,0.002 -16.671,0.066 -17.392,-0.221c-0.669,-0.267 -8.097,-24.379 -12.593,-42.285c-0.296,-1.179 -1.772,-1.873 -1.527,-0.07c0.45,3.31 0.386,4.809 0.386,28.331c0,12.195 0.691,14.243 -2.087,14.245c-17.49,0.019 -18.027,0.239 -18.393,-1.136c-0.036,-0.134 -0.015,-83.568 -0.01,-83.66c0.089,-1.768 2.017,-1.411 14.946,-1.392c4.328,0.006 5.427,-0.648 6.672,3.52c5.872,19.653 6.208,19.519 11.277,39.388c1.487,5.829 1.035,-3.82 1.019,-4.162c-0.076,-1.62 -0.137,-37.646 0.018,-37.968c0.626,-1.302 19.819,-1.197 20.277,-0.029c0.576,1.466 0.157,76.955 0.12,83.646c-0.013,2.401 -2.081,1.719 -2.713,1.792l0,0.001Z" style="fill:#bc0219;"/><path d="M545.553,325.518c-0.152,-0.089 -0.036,-0.405 -0.189,-0.494c-0.985,-0.576 -0.858,0.842 -0.849,0.944c0.588,23.773 0.149,42.121 0.054,42.294c-0.573,1.043 -19.424,0.644 -19.852,0.242c-0.473,-0.444 -0.417,-0.585 -0.417,-67.192c0,-17.367 -0.494,-18.659 1.87,-18.67c16.623,-0.076 16.647,-0.488 17.937,0.14c1.117,0.544 7.951,22.703 13.09,42.836c0.221,0.867 1.376,0.943 1.329,-0.121c-0.494,-11.274 -0.527,-11.229 -0.527,-28.336c0,-12.672 -0.669,-14.506 2.073,-14.513c17.723,-0.045 18.109,-0.085 18.358,0.776c0.368,1.273 0.107,76.923 0.083,83.612c-0.007,2.11 -1.131,1.839 -18.44,1.794c-2.818,-0.007 -2.267,-1.063 -3.061,-3.788c-10.597,-36.372 -10.381,-36.413 -11.461,-39.523l0.002,-0.001Z" style="fill:#bb0219;"/><path d="M418.629,456.332c-0.043,-0.242 -0.471,-2.663 -1.04,-2.897c-0.784,-0.321 -14.607,-0.13 -14.619,-0.128c-2.048,0.29 -2.255,12.201 -3.076,14.227c-0.584,1.442 -19.816,0.878 -20.152,0.338c-0.462,-0.742 13.224,-85.02 13.745,-85.419c1.542,-1.179 29.784,-0.398 32.373,-0.326c2.297,0.064 2.386,6.761 3.204,11.933c6.43,40.64 6.444,40.622 6.981,44.271c4.258,28.97 4.986,29.68 3.713,29.964c-0.064,0.014 -18.12,0.07 -18.805,-0.054c-0.489,-0.088 -0.932,-0.13 -2.322,-11.911l-0.002,0.002Zm-9.1,-55.867c-0.6,13.446 -6.668,34.843 -3.728,34.935c9.613,0.299 9.844,-0.474 9.738,-1.252c-1.899,-13.935 -2.557,-13.761 -4.266,-27.664c-0.584,-4.755 0.509,-5.97 -1.744,-6.018l0,-0.001Z" style="fill:#bb0218;"/><path d="M578.703,425.084c-2.047,-0.017 -2.205,-0.227 -2.392,0.226c-0.143,0.347 -0.055,0.781 4.581,1.006c1.24,0.201 8.682,1.408 12.083,10.031c2.118,5.369 1.157,31.299 0.88,31.593c-0.615,0.652 -19.466,0.516 -19.912,0.078c-1.234,-1.213 0.579,-29.272 -1.063,-32.282c-1.13,-2.071 -6.664,-2.011 -7.268,-2.004c-2.676,0.029 -1.793,1.249 -1.798,3.88c-0.058,29.525 0.39,30.315 -0.914,30.651c-0.265,0.068 -18.344,0.115 -18.808,-0.031c-0.954,-0.3 -0.806,-0.784 -0.812,-71.441c-0.001,-13.134 -0.713,-14.666 2.262,-14.672c34.946,-0.069 35.151,-0.069 38.576,1.836c10.146,5.646 9.228,14.329 9.04,25.289c-0.116,6.773 -4.672,14.995 -14.456,15.841l0.001,-0.001Zm-11.711,-6.523c8.244,-0.213 7.249,-3.166 7.239,-11.392c-0.007,-5.902 0.67,-9.304 -9.386,-8.603c-1.462,0.102 -1.333,0.887 -1.029,18.286c0.038,2.203 1.003,1.485 3.177,1.71l-0.001,-0.001Z" style="fill:#bb0218;"/><path d="M318.287,360.121c-0.005,3.634 0.812,8.664 -1.758,8.709c-17.875,0.316 -18.545,0.417 -18.86,-1.061c-0.546,-2.563 1.067,-29.72 -0.985,-32.048c-1.716,-1.947 -8.744,-2.569 -8.777,0.171c-0.367,31.161 0.97,32.896 -1.82,32.939c-17.722,0.274 -18.54,0.378 -18.605,-1.112c-0.051,-1.168 -0.024,-83.639 -0.019,-83.7c0.157,-1.657 1.044,-1.377 26.238,-1.376c5.386,0 18.143,-1.889 22.98,11.693c0.387,1.086 2.376,15.819 -1.13,22.737c-5.246,10.351 -17.069,7.76 -14.797,9.636c0.854,0.705 9.939,-2.454 15.944,9.111c2.337,4.501 1.296,11.533 1.59,24.3l-0.001,0.001Zm-30.382,-49.123c0.001,3.462 -0.731,7.9 1.623,7.941c1.469,0.025 7.638,0.954 8.644,-3.01c0.129,-0.509 0.536,-13.002 -0.226,-14.667c-0.593,-1.295 -2.353,-2.395 -3.583,-2.443c-0.496,-0.02 -5.608,-0.222 -6.196,0.419c-0.362,0.396 -0.263,3.838 -0.263,11.76l0.001,0Z" style="fill:#bb0219;"/><path d="M359.383,425.093c-0.178,-0.02 -2.829,-0.319 -2.098,0.791c0.189,0.287 0.283,0.028 4.281,0.426c7.505,0.367 13.433,9.291 13.487,14.775c0.012,1.214 0.043,26.046 -0.013,26.225c-0.355,1.143 -0.602,0.999 -1.768,1.005c-18.352,0.091 -18.565,-0.291 -18.728,-0.942c-0.501,-2.004 0.8,-29.617 -0.791,-31.741c-2.251,-3.004 -8.957,-2.242 -9.038,-0.825c-0.275,4.823 0.504,32.367 -0.494,33.265c-0.039,0.035 -0.035,0.28 -18.006,0.242c-1.085,-0.002 -1.964,0.044 -1.98,-1.648c-0.063,-6.716 -0.774,-82.606 0.265,-83.95c0.517,-0.669 0.718,-0.608 30.777,-0.6c20.122,0.005 19.294,15.941 18.841,27.826c-0.162,4.248 -3.379,14.393 -14.735,15.15l0,0.001Zm-11.716,-6.532c0.418,-0.017 6.655,1.117 7.392,-3.81c0.078,-0.524 0.174,-11.74 -0.058,-13.062c-0.8,-4.565 -10.194,-3.637 -10.282,-2.169c-0.027,0.454 -0.067,17.758 0.001,18.066c0.297,1.334 2.728,0.968 2.947,0.976l0,-0.001Z" style="fill:#bb0218;"/><path d="M463.597,407.168c0.132,12.155 30.394,8.333 31.175,32.528c0.423,13.104 0.65,22.672 -10.247,27.353c-3.031,1.302 -26.073,3.194 -32.931,-1.3c-9.397,-6.158 -7.793,-14.401 -7.831,-30.215c-0.001,-0.403 -0.012,-4.946 0.754,-4.977c0.265,-0.011 17.433,9.346 17.819,9.944c1.054,1.629 -1.723,8.604 5.026,8.834c3.876,0.132 9.431,1.115 8.281,-8.264c-1.038,-8.466 -31.735,-8.187 -31.885,-29.753c-0.058,-8.293 -3.012,-29.046 18.068,-29.202c13.312,-0.098 28.056,-2.125 32.39,11.942c0.84,2.727 0.981,26.149 0.033,26.613c-0.532,0.26 -8.268,-4.38 -10.465,-5.578c-4.016,-2.19 -8.041,-3.685 -8.082,-5.852c-0.01,-0.54 -0.109,-5.742 -0.994,-6.673c-2.494,-2.625 -10.838,-2.335 -11.084,2.494c-0.036,0.701 0.01,1.404 -0.026,2.105l-0.001,0.001Z" style="fill:#bb0218;"/><path d="M440.701,310.998c-0.009,-0.606 0.596,-4.22 -1.288,-6.663c-0.694,-0.9 -2.256,-1.103 -2.472,-1.13c-10.752,-1.394 -8.599,3.899 -8.599,14.712c0,27.76 -0.724,29.908 3.757,30.262c15.187,1.2 5.412,-11.723 9.673,-12.214c0.556,-0.064 17.956,-0.029 17.976,-0.028c1.327,0.103 1.835,0.599 1.476,16.576c-0.188,8.373 -7.405,16.26 -16.697,16.318c-21.208,0.132 -27.418,0.777 -32.963,-6.142c-4.396,-5.485 -3.804,-6.141 -3.804,-54.457c0,-2.831 -3.249,-25.333 17.397,-25.575c21.531,-0.252 27.667,-0.597 33.01,7.037c1.145,1.636 3.988,5.698 3.035,24.776c-0.055,1.101 -1.317,1.145 -1.466,1.151c-0.271,0.01 -17.683,0.008 -17.942,-0.014c-1.536,-0.131 -0.828,-0.864 -1.094,-4.607l0.001,-0.002Z" style="fill:#bb0219;"/><path d="M108.468,258.706c0.175,0.326 0.796,0.213 0.971,0.539c0.684,1.272 0.983,2.716 1.502,4.064c1.259,3.268 9.878,17.408 28.483,13.141c5.864,-1.345 3.248,-3.933 1.698,-9.14c-5.653,-18.991 11.686,-41.896 13.561,-39.359c0.271,0.367 -8.802,21.916 21.452,30.964c2.5,0.748 3.424,0.751 3.466,-1.882c0.192,-11.977 -11.386,-21.275 -5.664,-19.107c0.472,0.179 0.924,0.409 1.402,0.572c33.55,11.411 40.989,42.215 34.512,55.83c-1.236,2.597 -1.47,-0.793 -8.624,-5.788c-4.019,-2.807 -2.399,-3.75 -2.631,-8.658c-0.316,-6.711 -5.794,-14.019 -6.541,-14.109c-2.221,-0.266 -1.727,15.291 -25.836,3.362c-11.373,-5.628 -12.662,-10.929 -12.681,-7.887c-0.051,8.24 7.184,14.13 7.229,14.485c0.033,0.261 -16.555,21.291 -41.475,11.232c-3.28,-1.324 0.645,4.916 0.873,5.278c6.66,10.589 14.94,8.329 12.399,11.191c-5.165,5.817 -5.888,10.154 -8.381,8.967c-28.023,-13.34 -19.071,-47.496 -15.715,-53.695Z" style="fill:#bb0218;"/><path d="M526.863,402.697c-0.502,0.002 -6.016,0.028 -6.267,0.272c-0.572,0.555 -0.391,0.615 -0.403,1.436c-0.121,8.514 -0.385,10.626 1.822,10.636c10.38,0.047 13.857,-0.766 13.905,1.813c0.026,1.437 0.311,16.858 -0.134,17.962c-0.608,1.51 -12.436,0.507 -14.445,0.808c-0.871,0.131 -1.89,0.283 -1.137,10.955c0.082,1.163 3.567,1.165 3.892,1.165c11.939,0.005 14.322,-0.553 14.405,1.634c0.683,18.058 0.28,18.712 -1.223,18.921c-1.935,0.27 -32.497,0.036 -35.323,0.014c-3.113,-0.024 -2.367,-1.328 -2.367,-4.412c-0.013,-81.048 0.018,-81.152 0.425,-81.487c0.675,-0.556 37.56,-0.359 37.896,-0.108c0.237,0.177 0.676,0.189 0.596,18.632c-0.01,2.407 -3.004,1.757 -11.641,1.757l-0.001,0.002Z" style="fill:#bb0218;"/><path d="M323.192,312.382c0,-28.685 -0.031,-28.654 0.163,-29.109c0.567,-1.332 1.108,-0.799 18.085,-0.631c3.306,0.033 2.331,1.513 2.332,4.832c0.006,80.549 0.003,80.618 -0.288,80.923c-0.828,0.868 -19.355,0.342 -19.449,0.312c-0.961,-0.303 -0.843,-0.768 -0.843,-56.328l0,0.001Z" style="fill:#bb0218;"/><path d="M481.197,275.019c2.17,-4.278 4.259,-8.793 5.612,-9.52c1.954,-1.05 23.491,-0.326 25.533,-0.257c0.263,0.009 5.379,1.303 -0.235,5.317c-8.928,6.385 -8.555,7.603 -12.918,7.621c-16.389,0.068 -18.343,0.44 -17.992,-3.161Z" style="fill:#bb0319;"/><path d="M189.465,310.313c-1.646,13.181 -19.903,5.464 -13.121,-4.666c1.146,-1.712 11.32,-7.744 13.121,4.666Z" style="fill:#bb0218;"/><path d="M307.515,421.668c0.361,0.354 0.722,0.707 1.082,1.061c-0.283,0.031 -4.173,0.457 -3.489,-0.724c0.251,-0.433 0.365,-0.206 2.406,-0.336l0.001,-0.001Z" style="fill:#d66270;"/><path d="M578.703,425.084c0.257,0.144 -0.368,0.732 -0.111,0.876c0,0 2.116,0.327 2.3,0.355c-4.637,-0.224 -4.725,-0.659 -4.581,-1.006c0.187,-0.453 0.345,-0.242 2.392,-0.226l0,0.001Z" style="fill:#c93547;"/><path d="M359.383,425.093c0.135,0.24 -0.189,0.584 -0.054,0.825c0.089,0.158 0.163,0.019 2.236,0.392c-3.998,-0.398 -4.091,-0.138 -4.281,-0.426c-0.731,-1.11 1.92,-0.811 2.098,-0.791l0.001,0Z" style="fill:#c83143;"/><path d="M144.53,467.234c1.118,0.76 1.2,0.703 1.205,0.819c0,0 -0.78,0.388 -0.848,0.422c-0.119,-0.414 -0.238,-0.828 -0.357,-1.241Z" style="fill:#cf4b5a;"/><path d="M545.553,325.518l-1.037,0.45c-0.009,-0.101 -0.136,-1.519 0.849,-0.944c0.152,0.089 0.036,0.405 0.189,0.494l-0.001,0Z" style="fill:#da737f;"/><path d="M109.009,353.998c-0.074,0.193 -0.153,0.105 -0.225,0.293c-0.031,0.081 -0.026,0.076 -0.348,1.027c0.191,-0.44 0.382,-0.881 0.573,-1.321l0,0.001Z" style="fill:#e7aab3;"/></svg>